<?xml version="1.0" standalone="no"?><!DOCTYPE svg PUBLIC "-//W3C//DTD SVG 1.1//EN" "http://www.w3.org/Graphics/SVG/1.1/DTD/svg11.dtd"><svg class="icon" width="200px" height="200.00px" viewBox="0 0 1024 1024" version="1.1" xmlns="http://www.w3.org/2000/svg"><path d="M512 204.8C365.226667 204.8 85.333333 184.32 85.333333 102.4S365.226667 0 512 0s426.666667 20.48 426.666667 102.4S658.773333 204.8 512 204.8z m0-170.666667C252.586667 34.133333 119.466667 81.92 119.466667 102.4S252.586667 170.666667 512 170.666667s392.533333-47.786667 392.533333-68.266667S771.413333 34.133333 512 34.133333z"  /><path d="M512 1024c-3.413333 0-6.826667 0-6.826667-3.413333-10.24-3.413333-215.04-122.88-215.04-252.586667 0-92.16 17.066667-133.12 34.133334-167.253333 13.653333-30.72 23.893333-58.026667 23.893333-109.226667 0-47.786667-40.96-78.506667-95.573333-119.466667C177.493333 317.44 85.333333 249.173333 85.333333 102.4c0-10.24 6.826667-17.066667 17.066667-17.066667s17.066667 6.826667 17.066667 17.066667c0 129.706667 81.92 187.733333 153.6 242.346667 54.613333 40.96 109.226667 81.92 109.226666 146.773333 0 61.44-13.653333 92.16-27.306666 122.88-13.653333 34.133333-30.72 71.68-30.72 153.6 0 78.506667 98.986667 160.426667 157.013333 197.973333-64.853333-218.453333 54.613333-324.266667 184.32-436.906666C785.066667 423.253333 907.946667 317.44 907.946667 102.4c0-10.24 6.826667-17.066667 17.066666-17.066667s17.066667 6.826667 17.066667 17.066667c0 228.693333-133.12 348.16-252.586667 453.973333-133.12 116.053333-245.76 215.04-157.013333 443.733334 3.413333 6.826667 0 13.653333-3.413333 20.48-10.24 3.413333-13.653333 3.413333-17.066667 3.413333zM682.666667 1024h-102.4c-10.24 0-17.066667-6.826667-17.066667-17.066667s6.826667-17.066667 17.066667-17.066666h102.4c10.24 0 17.066667 6.826667 17.066666 17.066666s-6.826667 17.066667-17.066666 17.066667zM409.6 1024H307.2c-10.24 0-17.066667-6.826667-17.066667-17.066667s6.826667-17.066667 17.066667-17.066666h102.4c10.24 0 17.066667 6.826667 17.066667 17.066666s-6.826667 17.066667-17.066667 17.066667z"  /><path d="M580.266667 921.6c-3.413333 0-10.24 0-13.653334-3.413333-6.826667-6.826667-6.826667-17.066667 0-23.893334l68.266667-68.266666c6.826667-6.826667 17.066667-6.826667 23.893333 0s6.826667 17.066667 0 23.893333l-68.266666 68.266667c0 3.413333-6.826667 3.413333-10.24 3.413333zM628.053333 730.453333c-61.44 0-136.533333-13.653333-211.626666-47.786666-116.053333-47.786667-211.626667-119.466667-238.933334-187.733334-10.24-23.893333-10.24-47.786667-3.413333-68.266666 13.653333-34.133333 54.613333-58.026667 112.64-61.44 10.24 0 17.066667 6.826667 17.066667 17.066666s-6.826667 17.066667-17.066667 17.066667c-44.373333 3.413333-75.093333 17.066667-85.333333 40.96-3.413333 10.24-3.413333 27.306667 3.413333 40.96 23.893333 58.026667 112.64 126.293333 221.866667 167.253333 157.013333 64.853333 290.133333 51.2 310.613333 3.413334 10.24-27.306667-10.24-64.853333-51.2-105.813334-6.826667-6.826667-6.826667-17.066667 0-23.893333 6.826667-6.826667 17.066667-6.826667 23.893333 0 54.613333 51.2 78.506667 102.4 61.44 143.36-17.066667 44.373333-71.68 64.853333-143.36 64.853333zM546.133333 375.466667c-10.24 0-17.066667-6.826667-17.066666-17.066667s6.826667-17.066667 17.066666-17.066667c184.32 0 327.68-95.573333 341.333334-126.293333 6.826667-10.24 17.066667-13.653333 23.893333-10.24 10.24 6.826667 13.653333 17.066667 10.24 23.893333-23.893333 51.2-187.733333 146.773333-375.466667 146.773334z"  /></svg>